<svg version="1.1" xmlns="http://www.w3.org/2000/svg" xmlns:xlink="http://www.w3.org/1999/xlink" width="16.63332" height="13.29065" viewBox="0,0,16.63332,13.29065"><g transform="translate(-231.66667,-174.35468)"><g data-paper-data="{&quot;isPaintingLayer&quot;:true}" stroke-linejoin="miter" stroke-miterlimit="10" stroke-dasharray="" stroke-dashoffset="0" style="mix-blend-mode: normal"><path d="M240.58171,175.7787v10.44096c0,1.23699 -1.45809,1.88453 -2.36726,1.05076l-1.96281,-1.80252c-0.69505,-0.63728 -1.60083,-0.99097 -2.54229,-0.99097h-0.34328c-0.93806,0 -1.6994,-0.76372 -1.6994,-1.70855v-3.51961c0,-0.94313 0.76134,-1.70855 1.6994,-1.70855h0.32459c0.94146,0 1.84724,-0.35368 2.5423,-0.99096l1.9815,-1.81961c0.90918,-0.83377 2.36726,-0.18622 2.36726,1.04906z" fill="#ffffff" fill-rule="evenodd" stroke="none" stroke-width="1" stroke-linecap="butt"/><path d="M242.36359,178.61229l4.77543,4.77543" fill="none" fill-rule="nonzero" stroke="#ffffff" stroke-width="1.5" stroke-linecap="round"/><path d="M247.13902,178.61229l-4.77543,4.77543" fill="none" fill-rule="nonzero" stroke="#ffffff" stroke-width="1.5" stroke-linecap="round"/><path d="M243.11935,184.1269c-0.17845,0 -0.36189,-0.04695 -0.52867,-0.14587c-0.49531,-0.2951 -0.66041,-0.93727 -0.3669,-1.43525c0.55868,-0.95236 0.55868,-2.13276 0,-3.08345c-0.29352,-0.49966 -0.12841,-1.14183 0.3669,-1.43693c0.50031,-0.29175 1.13738,-0.12743 1.42756,0.36887c0.94559,1.60963 0.94559,3.60825 0,5.21788c-0.19345,0.33199 -0.54201,0.51475 -0.8989,0.51475zM246.23287,185.80846c-0.17845,0 -0.36356,-0.04695 -0.52867,-0.14587c-0.49531,-0.2951 -0.66041,-0.93727 -0.3669,-1.43525c1.16907,-1.98856 1.16907,-4.46001 0,-6.4469c-0.29352,-0.49798 -0.12841,-1.14183 0.3669,-1.43693c0.49698,-0.29007 1.13405,-0.12743 1.42756,0.36887c1.55764,2.64583 1.55764,5.93551 0,8.58133c-0.19512,0.33199 -0.54201,0.51475 -0.8989,0.51475zM240.44883,175.87604v10.24629c0,1.21393 -1.4309,1.8494 -2.32313,1.03117l-1.92621,-1.76892c-0.68209,-0.62541 -1.57099,-0.97248 -2.4949,-0.97248h-0.33688c-0.92058,0 -1.66771,-0.74948 -1.66771,-1.6767v-3.454c0,-0.92554 0.74714,-1.6767 1.66771,-1.6767h0.31853c0.92391,0 1.8128,-0.34708 2.4949,-0.97248l1.94455,-1.78568c0.89223,-0.81823 2.32313,-0.18276 2.32313,1.02949z" fill-opacity="0" fill="#ffffff" fill-rule="evenodd" stroke="none" stroke-width="1" stroke-linecap="butt"/></g></g></svg>