<svg version="1.1" xmlns="http://www.w3.org/2000/svg" xmlns:xlink="http://www.w3.org/1999/xlink" width="724.14422" height="724.1441" viewBox="0,0,724.14422,724.1441"><g transform="translate(122.07211,182.07206)"><g data-paper-data="{&quot;isPaintingLayer&quot;:true}" fill-opacity="0.03965" fill="#ffffff" fill-rule="nonzero" stroke="none" stroke-width="1.08178" stroke-linecap="square" stroke-linejoin="miter" stroke-miterlimit="10" stroke-dasharray="" stroke-dashoffset="0" style="mix-blend-mode: normal"><path d="M315.80862,-173.89421c21.62123,127.91262 -8.57432,253.27057 -75.80857,353.89411c23.60285,-118.66061 3.53896,-245.99049 -65.34051,-355.87129c21.54756,-4.04082 43.41753,-6.11619 65.34051,-6.20068c25.4869,0.05023 50.89729,2.79131 75.80857,8.17786zM445.48445,-118.02775c39.11339,27.03421 72.51912,61.50745 98.31007,101.4516c-75.15783,105.69971 -185.125,172.97103 -303.79447,196.57606c100.64562,-67.24926 176.52441,-171.53979 205.4844,-298.02768zM595.87136,114.665c4.04046,21.54572 6.11595,43.41384 6.20075,65.33505c-0.00625,25.47657 -2.70132,50.88131 -8.04051,75.79213c-127.96024,21.66574 -253.37215,-8.53397 -354.03151,-75.79227c118.66052,23.60302 245.99049,3.54452 355.87129,-65.33489zM538.06615,385.49556c-26.98484,39.14469 -61.41512,72.59146 -101.32523,98.43083c-105.79943,-75.16109 -173.1232,-185.19224 -196.74089,-303.92643c67.25597,100.65557 171.56113,176.54225 298.06613,205.49563zM305.46675,536.09657c-21.59588,3.97282 -43.50839,5.97291 -65.46668,5.97547c-25.48876,-0.0498 -50.90108,-2.79102 -75.81419,-8.17793c-21.61932,-127.91066 8.58084,-253.27229 75.81419,-353.89421c-23.61861,118.73892 -3.52286,246.16636 65.46668,356.09667zM34.51004,478.03328c-39.11645,-27.03684 -72.52409,-61.51389 -98.31552,-101.46246c75.15819,-105.69817 185.13721,-172.96606 303.8055,-196.57091c-100.64698,67.25037 -176.53102,171.54334 -205.49003,298.03337zM-115.88237,245.33501c-4.03672,-21.54611 -6.10849,-43.41425 -6.18974,-65.3351c0.04842,-25.48671 2.78779,-50.89709 8.17242,-75.80857c127.91254,-21.62104 253.2763,8.57432 353.89971,75.80857c-118.66197,-23.60321 -246.00072,-3.54637 -355.88242,65.3351zM-58.03323,-25.49007c27.03746,-39.11447 61.51452,-72.52023 101.46265,-98.30999c105.69725,75.15829 172.96606,185.13214 196.57065,303.8c-67.24935,-100.64562 -171.54536,-176.53011 -298.03325,-205.49z"/></g></g></svg>